<svg id="图层_1" data-name="图层 1" xmlns="http://www.w3.org/2000/svg" viewBox="0 0 604.08 397.21"><defs><style>.cls-1{fill:#ffc800;}.cls-2{fill:#e4871d;stroke:#e4871d;stroke-miterlimit:10;stroke-width:3px;}</style></defs><title>colorfullogo</title><path class="cls-1" d="M412.12,210.29h51.24V311.54h80v33.09H412.12Z" transform="translate(-378.42 -210.29)"/><path class="cls-1" d="M568.69,210.29H620V344.63H568.69Z" transform="translate(-378.42 -210.29)"/><path class="cls-1" d="M640.53,210.29h53.58l37.34,96.64,36.94-96.64h51.93l-61.6,134.34H703.18Z" transform="translate(-378.42 -210.29)"/><path class="cls-1" d="M837,210.29H974.29V239h-86v21.36h79.75v27.35H888.31v26.49H976.8v30.43H837Z" transform="translate(-378.42 -210.29)"/><path class="cls-1" d="M700.39,396h20.77l9,36.58L741.45,396h19.18l11.78,36.67,9-36.67h20.52l-20.52,58.1h-19l-11.33-35-10.91,35h-19Z" transform="translate(-378.42 -210.29)"/><path class="cls-1" d="M813.7,373.88h21.37V389H813.7Zm0,22.11h21.37v58.1H813.7Z" transform="translate(-378.42 -210.29)"/><path class="cls-1" d="M879.38,373.88V396h11.74v16.29H879.38v20.59a11.36,11.36,0,0,0,.68,4.92,3.74,3.74,0,0,0,3.7,1.91,22.43,22.43,0,0,0,6.63-1.42L892,453.57a67,67,0,0,1-14.83,1.81,24.66,24.66,0,0,1-11.75-2.14,12.58,12.58,0,0,1-5.66-6.48,39.11,39.11,0,0,1-1.89-14.05V412.26H850V396h7.87V385.33Z" transform="translate(-378.42 -210.29)"/><path class="cls-1" d="M906.23,373.88h21.35v29.54a28.78,28.78,0,0,1,8.65-6.72,23.6,23.6,0,0,1,10.19-2,17.64,17.64,0,0,1,13.72,5.52q5,5.51,5,17v36.94H943.6V422.14a11.89,11.89,0,0,0-1.88-7.74,6.72,6.72,0,0,0-5.46-2.27,7.48,7.48,0,0,0-6.28,3.05c-1.65,2.08-2.47,5.76-2.47,11v27.9H906.23Z" transform="translate(-378.42 -210.29)"/><path class="cls-2" d="M673.73,592.93c-16.93,0-25.52-6.57-26.66-16.75-9.76,8.6-22.66,15.63-37.27,15.63s-20.36-8.61-20.36-18.34a36.45,36.45,0,0,1,3.7-15.63c6.32-14.25,21-36.88,38.71-56.55a8.31,8.31,0,0,1,10.3-1.67,6.85,6.85,0,0,1,1.56,1.19c.16.15.32.31.47.48a14.53,14.53,0,0,1,4.3,10.41c0,9.28-20.92,35.53-30.91,53-5.16,9-5.93,17.41.29,17.41,7.42,0,22.65-15.37,37.27-33.49,16.9-21.71,24.37-37.1,34.62-47.52,4-4.3,8.65-5.21,12-1.36a16.34,16.34,0,0,1,4.29,11.78c0,7.7-5.93,17.65-16.07,30.76-8.31,10.64-19.5,26-19.5,34.85,0,4,1.74,6.34,5.44,6.34,9.47,0,24.1-15.63,34.42-29.87,2.86-3.85,7.74-4.52,10-.22,1.15,2,2.28,8.6-2,15.15C710.14,581.38,691.49,592.93,673.73,592.93Z" transform="translate(-378.42 -210.29)"/><path class="cls-2" d="M721.52,542.47c5.64-3.85,9.89-2.72,10.71,2.7,9.27-10.64,19.15-22.39,26.46-32.13a23.14,23.14,0,0,1,11-17.65,25,25,0,0,1,13.79-4.74c7.61,0,9.3,5,.57,16.51-.27,2.72-.57,6.57-.57,9.5,0,16,3.71,30.79,3.12,43a36.61,36.61,0,0,1-4.81,17c11.55-6.34,19.45-13.82,24.52-24.89,2.53-5.21,6.75-3.62,8.73,0,1.4,2.26,2.26,8.59-2.82,15.63-10.71,15.82-30.43,24.43-51.53,25.11-16.92.45-33.82-3.13-43.39-17.44a26,26,0,0,1-4.79-14.93A21,21,0,0,1,721.52,542.47Zm38,13.34c0-7.29-.28-14.48-.85-20.6-6.74,8.62-14.64,18.34-23.1,28,3.39,10.62,9.3,18.54,15.56,18.54,5.84.09,8.39-11.23,8.39-25.94Z" transform="translate(-378.42 -210.29)"/><path class="cls-2" d="M834.55,592.26c-17.19,0-24.73-8-24.73-19.24a42.14,42.14,0,0,1,3.33-15c7-15.85,25.06-42.1,35.48-53.86,4.21-4.53,7.59-5,11.27-1.57,5.34,4.51,7.61,14.25.28,25.57-5.36,9.71-18.33,26.68-23.1,35.75a33.34,33.34,0,0,0-3.89,13.54c0,3.63,1.12,5.66,4.24,5.66,11.25,0,26-15.15,34.61-30.54,2.25-4,5.84-3.63,8.45.46s2.25,9.49-1.41,15.37C870.5,582.73,851.08,592.26,834.55,592.26ZM870.6,476.83c7.89,0,15.55,8.16,15.55,14.72a10.9,10.9,0,0,1-10.41,11.33h-.86c-9,0-16.61-6.8-16.61-13.82a12.85,12.85,0,0,1,12.23-12.22Z" transform="translate(-378.42 -210.29)"/><path class="cls-2" d="M969.35,513.66c4.22,7.48-.29,15.84-5.63,24.68a64.94,64.94,0,0,0-5.08,9.27c-1.95,4.3-4.5,4.76-10.13,2.48-5.07-2.48-9.89-6.78-9.89-12.9,0-2.94,1.4-7.45,6.48-16.73,2.82-4.54,4.77-8.6,3.64-9.52-3.37-2.26-21.67,12.46-33,30.79-5.64,9.28-8.45,18.55-8.45,25.33,0,10,5.06,16,12.66,16.3,21.13.24,40.58-17.19,51.83-30.77,2.47-3.4,6.78-4.3,8.46-.46,1.41,2.94,1.41,8.84-3.71,15.17C965.79,580.85,943,592,921,592.19c-25.89.22-40.25-13.13-40.25-31.25a48.48,48.48,0,0,1,8.73-26.26c14.36-23.31,36.6-35.52,52.94-35.52C953,499.24,964.8,507,969.35,513.66Z" transform="translate(-378.42 -210.29)"/><path class="cls-2" d="M454.63,561.71c2.57-14.69,13.21-51.58,25.75-87.52-28.69,39.16-61.43,86.18-81.3,126.64-2.21,4.56-7.73,5.54-12.5,1.3A21.15,21.15,0,0,1,380,585.82a50.68,50.68,0,0,1,5.18-20.49c15.11-32.65,72.82-118.14,111.4-164.16,4.42-5.21,10.29-7.18,17.3-2.3,9.9,7.52,15.11,16,15.11,26.45,0,5.86-1.89,14-5.14,23.49-11.33,29.37-18.77,49.3-32.14,93,38.61-51.91,78-83.9,118.79-141.38,4.8-6.86,9.57-7.18,16.57-1.31,6.8,6.1,10.61,14.15,10.66,22.52,0,8.81-4,17.95-8.82,26.75-25.39,42-61.81,106.71-79.83,152.41-2.58,6.53-5.88,6.53-11.78,1.91a22.72,22.72,0,0,1-8.44-18.65,63.24,63.24,0,0,1,2.94-18.61v.32c4.42-15.28,22.45-49.67,40.46-82.24-32.35,36.88-68,80.95-89.73,115.86-4.07,6.53-7.42,6.53-12.88,2.93-9.89-6.83-16.2-15.63-16.2-29.36A65,65,0,0,1,454.63,561.71Z" transform="translate(-378.42 -210.29)"/></svg>