<svg id="图层_1" data-name="图层 1" xmlns="http://www.w3.org/2000/svg" viewBox="0 0 487.21 379.76"><defs><style>.cls-1,.cls-2{fill:#fed136;}.cls-2{stroke:#fed136;stroke-miterlimit:10;stroke-width:2px;}</style></defs><title>logooo</title><path class="cls-1" d="M482.83,210.24h41.44v97.18H589v31.76H482.83Z" transform="translate(-456.79 -210.24)"/><path class="cls-1" d="M609.47,210.24H651V339.18H609.47Z" transform="translate(-456.79 -210.24)"/><path class="cls-1" d="M667.58,210.24h43.34L741.12,303,771,210.24h42L763.18,339.18H718.25Z" transform="translate(-456.79 -210.24)"/><path class="cls-1" d="M826.45,210.24H937.54v27.51H868v20.5H932.5V284.5H868v25.42h71.57v29.21H826.45Z" transform="translate(-456.79 -210.24)"/><path class="cls-1" d="M716,388.47h16.8l7.24,35.11,9.17-35.11h15.51l9.53,35.2,7.27-35.2h16.6l-16.6,55.76H766.16L757,410.67l-8.83,33.56H732.82Z" transform="translate(-456.79 -210.24)"/><path class="cls-1" d="M807.65,367.25h17.28v14.54H807.65Zm0,21.22h17.28v55.76H807.65Z" transform="translate(-456.79 -210.24)"/><path class="cls-1" d="M860.77,367.25v21.22h9.5v15.64h-9.5v19.76a12.94,12.94,0,0,0,.55,4.72,2.94,2.94,0,0,0,3,1.83,15.87,15.87,0,0,0,5.36-1.36l1.27,14.67a46.06,46.06,0,0,1-12,1.74,17.21,17.21,0,0,1-9.5-2.05,11.74,11.74,0,0,1-4.58-6.22,44.24,44.24,0,0,1-1.53-13.49V404.09H837V388.47h6.37V378.24Z" transform="translate(-456.79 -210.24)"/><path class="cls-1" d="M882.49,367.25h17.27V395.6a24.48,24.48,0,0,1,7-6.45A16.64,16.64,0,0,1,915,387.2a13.25,13.25,0,0,1,11.1,5.3q4,5.29,4,16.28v35.45H912.72V413.57a13.1,13.1,0,0,0-1.52-7.43,5.09,5.09,0,0,0-4.42-2.18,5.79,5.79,0,0,0-5.08,2.93q-2,3-2,10.57v26.77H882.49Z" transform="translate(-456.79 -210.24)"/><path class="cls-2" d="M694.43,577.49c-13.69,0-20.64-6.31-21.56-16.08-7.9,8.25-18.33,15-30.15,15s-16.47-8.26-16.47-17.6a40.33,40.33,0,0,1,3-15c5.11-13.68,16.94-35.4,31.31-54.28a6,6,0,0,1,9.59-.46c.13.15.26.3.38.46a15.4,15.4,0,0,1,3.48,10c0,8.9-16.92,34.1-25,50.83-4.18,8.67-4.8,16.71.23,16.71,6,0,18.32-14.75,30.15-32.14,13.67-20.84,19.71-35.61,28-45.61,3.2-4.12,7-5,9.75-1.3a17.54,17.54,0,0,1,3.47,11.3c0,7.39-4.8,16.94-13,29.53-6.72,10.21-15.77,24.94-15.77,33.44,0,3.84,1.4,6.09,4.4,6.09,7.66,0,19.49-15,27.84-28.67,2.31-3.69,6.26-4.34,8.12-.21.93,1.92,1.84,8.25-1.6,14.54C723.88,566.4,708.8,577.49,694.43,577.49Z" transform="translate(-456.79 -210.24)"/><path class="cls-2" d="M733.09,529.06c4.56-3.7,8-2.61,8.66,2.59,7.5-10.21,15.49-21.49,21.4-30.84.57-7.05,3.88-13.35,8.89-16.94a18.27,18.27,0,0,1,11.16-4.55c6.15,0,7.52,4.78.46,15.85-.22,2.61-.46,6.3-.46,9.12,0,15.35,3,29.55,2.52,41.27a40.18,40.18,0,0,1-3.89,16.29c9.34-6.08,15.73-13.26,19.83-23.89,2.05-5,5.46-3.47,7.06,0,1.14,2.17,1.83,8.25-2.28,15-8.66,15.19-24.61,23.45-41.68,24.1-13.68.44-27.35-3-35.09-16.73A28.2,28.2,0,0,1,725.79,546C725.7,539.19,728.45,532.81,733.09,529.06Zm30.75,12.8c0-7-.23-13.9-.69-19.77-5.45,8.27-11.84,17.6-18.68,26.87,2.74,10.2,7.52,17.8,12.58,17.8,4.73.08,6.79-10.78,6.79-24.9Z" transform="translate(-456.79 -210.24)"/><path class="cls-2" d="M824.51,576.84c-13.9,0-20-7.68-20-18.46A46.94,46.94,0,0,1,807.2,544c5.69-15.21,20.27-40.41,28.7-51.69,3.41-4.35,6.14-4.78,9.12-1.51,4.32,4.33,6.15,13.68.22,24.54-4.33,9.32-14.82,25.61-18.68,34.31a36.6,36.6,0,0,0-3.15,13c0,3.48.91,5.43,3.43,5.43,9.1,0,21-14.54,28-29.31,1.82-3.84,4.72-3.48,6.83.44s1.82,9.11-1.14,14.75C853.59,567.7,837.88,576.84,824.51,576.84Zm29.16-110.78c6.38,0,12.58,7.83,12.58,14.13.13,5.83-3.63,10.7-8.42,10.87-.23,0-.47,0-.7,0-7.29,0-13.43-6.53-13.43-13.26.33-6.44,4.61-11.51,9.89-11.73Z" transform="translate(-456.79 -210.24)"/><path class="cls-2" d="M933.55,501.41c3.41,7.18-.24,15.2-4.56,23.68a68,68,0,0,0-4.11,8.9c-1.57,4.13-3.64,4.57-8.19,2.38-4.1-2.38-8-6.51-8-12.38,0-2.82,1.13-7.15,5.24-16.06,2.28-4.35,3.86-8.25,2.95-9.13-2.73-2.17-17.53,11.95-26.73,29.55-4.56,8.9-6.83,17.8-6.83,24.31,0,9.59,4.09,15.35,10.24,15.64,17.09.23,32.82-16.5,41.92-29.53,2-3.26,5.48-4.13,6.84-.44,1.14,2.82,1.14,8.48-3,14.56-8.65,13-27.11,23.66-44.88,23.89-20.94.21-32.56-12.61-32.56-30a52.7,52.7,0,0,1,7.06-25.2c11.62-22.37,29.61-34.09,42.82-34.09C920.32,487.57,929.87,495,933.55,501.41Z" transform="translate(-456.79 -210.24)"/><path class="cls-1" d="M517.21,547.52c2.08-14.1,10.69-49.5,20.83-84-23.21,37.59-49.69,82.72-65.76,121.55-1.79,4.38-6.25,5.32-10.11,1.25a22.39,22.39,0,0,1-5.36-15.66A55.83,55.83,0,0,1,461,551c12.22-31.34,58.9-113.39,90.1-157.56,3.58-5,8.33-6.89,14-2.2,8,7.21,12.22,15.35,12.22,25.38,0,5.63-1.53,13.46-4.16,22.55-9.16,28.18-15.18,47.31-26,89.28,31.23-49.82,63.07-80.52,96.09-135.69,3.88-6.58,7.74-6.89,13.4-1.26a31.79,31.79,0,0,1,8.62,21.62c0,8.45-3.26,17.23-7.13,25.67-20.54,40.33-50,102.42-64.57,146.28-2.09,6.27-4.76,6.27-9.53,1.83C579.51,582.6,577,576,577.21,569a71.3,71.3,0,0,1,2.38-17.86v.31c3.58-14.67,18.16-47.67,32.73-78.93-26.17,35.39-55,77.69-72.58,111.2-3.29,6.26-6,6.26-10.42,2.81-8-6.56-13.1-15-13.1-28.18A73,73,0,0,1,517.21,547.52Z" transform="translate(-456.79 -210.24)"/></svg>